Coordinates
version=1
nRows=13
nColumns=22
inDegrees=yes

Units are S.I. units (second, meters, Newtons, ...)
If the header above contains a line with 'inDegrees', this indicates whether rotational values are in degrees (yes) or radians (no).

endheader
time	pelvis_tilt	pelvis_list	pelvis_rotation	pelvis_tx	pelvis_ty	pelvis_tz	hip_flexion_r	hip_adduction_r	hip_rotation_r	knee_angle_r	ankle_angle_r	subtalar_angle_r	hip_flexion_l	hip_adduction_l	hip_rotation_l	knee_angle_l	ankle_angle_l	subtalar_angle_l	lumbar_extension	lumbar_bending	lumbar_rotation
      0.01000000	     -2.61104944	     -4.23022918	      0.66498438	     -1.36081902	      1.01355040	     -0.53726952	      0.48933307	      3.38596172	     -5.41522246	     -8.08200296	      9.02897106	      0.23832378	     -0.17859540	     -4.94873499	    -14.28425040	     -7.79808183	     11.21134310	     -2.32491174	     -1.62392219	      1.61307015	     -2.64927981
      0.02000000	     -2.61871191	     -4.23767361	      0.66142719	     -1.36079130	      1.01354306	     -0.53743599	      0.49421900	      3.38310300	     -5.41491128	     -8.07850036	      9.02836803	      0.24065956	     -0.17471393	     -4.94582518	    -14.28491321	     -7.79390672	     11.21234670	     -2.32569253	     -1.63629974	      1.61089978	     -2.65273988
      0.03000000	     -2.64959084	     -4.22503935	      0.65099804	     -1.36076160	      1.01350074	     -0.53762494	      0.52671520	      3.35481345	     -5.40251058	     -8.08190616	      9.02444138	      0.30061686	     -0.14345816	     -4.91953311	    -14.29400810	     -7.79746790	     11.22117794	     -2.34835865	     -1.62306595	      1.58287784	     -2.66195297
      0.04000000	     -2.66018909	     -4.23397175	      0.64170461	     -1.36071099	      1.01348128	     -0.53782720	      0.53264516	      3.35055870	     -5.40350974	     -8.07685480	      9.02548328	      0.30195876	     -0.13899600	     -4.91589387	    -14.29537032	     -7.79365064	     11.22205508	     -2.34896621	     -1.63652484	      1.57934024	     -2.66643788
      0.05000000	     -2.70710122	     -4.20846983	      0.61413646	     -1.36065358	      1.01340847	     -0.53803128	      0.58394373	      3.30519648	     -5.37956234	     -8.08717411	      9.04371393	      0.34565546	     -0.09198698	     -4.87455345	    -14.32861974	     -7.80338740	     11.22946375	     -2.36903924	     -1.60633140	      1.53469687	     -2.65774168
      0.06000000	     -2.71886112	     -4.21764520	      0.60337972	     -1.36056462	      1.01338661	     -0.53826545	      0.58819473	      3.29848955	     -5.37941278	     -8.08208759	      9.04430763	      0.34710318	     -0.08783742	     -4.86967227	    -14.32990984	     -7.80125317	     11.23094468	     -2.36973587	     -1.61799654	      1.53262429	     -2.66236783
      0.07000000	     -2.76744740	     -4.19369852	      0.56733555	     -1.36046784	      1.01331250	     -0.53848654	      0.63433128	      3.25299067	     -5.32948225	     -8.08443991	      9.05979964	      0.39692768	     -0.03806080	     -4.82943722	    -14.36976779	     -7.82066359	     11.24611004	     -2.39063083	     -1.58359095	      1.49099732	     -2.63966523
      0.08000000	     -2.77945069	     -4.20278864	      0.55338401	     -1.36034558	      1.01329017	     -0.53874925	      0.63611700	      3.24295729	     -5.32812192	     -8.07805826	      9.06015291	      0.39879963	     -0.03407581	     -4.82300453	    -14.37012357	     -7.82234820	     11.24814899	     -2.39142359	     -1.59365478	      1.49179776	     -2.64467934
      0.09000000	     -2.80932259	     -4.18434030	      0.53193554	     -1.36021160	      1.01324292	     -0.53901038	      0.64115751	      3.20343659	     -5.27015270	     -8.04517172	      9.05473253	      0.42964108	      0.00203932	     -4.78947885	    -14.39091674	     -7.85489505	     11.27916998	     -2.40467369	     -1.58056930	      1.45727108	     -2.64448355
      0.10000000	     -2.85992066	     -4.17926845	      0.48155003	     -1.36008439	      1.01317087	     -0.53925570	      0.68744588	      3.17453572	     -5.19920485	     -8.04793821	      9.06613740	      0.50711450	      0.05160452	     -4.76807685	    -14.43959616	     -7.87646716	     11.29652915	     -2.42437619	     -1.54362489	      1.44405786	     -2.61177497
      0.11000000	     -2.87288522	     -4.18873226	      0.46236370	     -1.35994329	      1.01315344	     -0.53956641	      0.68618336	      3.16035617	     -5.19922841	     -8.03652245	      9.06689684	      0.50990766	      0.05820021	     -4.75933097	    -14.43564200	     -7.88528914	     11.29763328	     -2.42494170	     -1.55381703	      1.45011411	     -2.61147427
      0.12000000	     -2.90438195	     -4.17633320	      0.44427785	     -1.35980074	      1.01311290	     -0.53987590	      0.67705639	      3.12456638	     -5.14345178	     -7.97456719	      9.05574953	      0.54827354	      0.10940236	     -4.73298835	    -14.43187695	     -7.94594755	     11.32370474	     -2.43559985	     -1.53988509	      1.42216773	     -2.58868803
      0.13000000	     -2.98471818	     -4.18151227	      0.39076516	     -1.35968698	      1.01301059	     -0.54017669	      0.74937619	      3.10214860	     -5.05290965	     -7.96632026	      9.04545447	      0.69020796	      0.19816697	     -4.72051365	    -14.48357018	     -7.98085757	     11.35674049	     -2.46050925	     -1.47425592	      1.42688942	     -2.55822818
